<svg id="visual" viewBox="0 0 1140 250" width="1140" height="250" xmlns="http://www.w3.org/2000/svg" xmlns:xlink="http://www.w3.org/1999/xlink" version="1.1"><rect x="0" y="0" width="1140" height="250" fill="#f7f7f7"></rect><defs><linearGradient id="grad1_0" x1="78.1%" y1="0%" x2="100%" y2="100%"><stop offset="-41.19999999999999%" stop-color="#f7f7f7" stop-opacity="1"></stop><stop offset="141.20000000000002%" stop-color="#f7f7f7" stop-opacity="1"></stop></linearGradient></defs><defs><linearGradient id="grad2_0" x1="0%" y1="0%" x2="21.9%" y2="100%"><stop offset="-41.19999999999999%" stop-color="#f7f7f7" stop-opacity="1"></stop><stop offset="141.20000000000002%" stop-color="#f7f7f7" stop-opacity="1"></stop></linearGradient></defs><g transform="translate(1140, 0)"><path d="M0 225C-46.2 223.1 -92.4 221.1 -112.5 194.9C-132.6 168.6 -126.8 118 -141.2 81.5C-155.6 45 -190.3 22.5 -225 0L0 0Z" fill="#b3cede"></path></g><g transform="translate(0, 250)"><path d="M0 -225C42.5 -220.9 85 -216.8 112.5 -194.9C140 -172.9 152.6 -133 168.9 -97.5C185.1 -62 205.1 -31 225 0L0 0Z" fill="#b3cede"></path></g></svg>