<svg id="visual" viewBox="0 0 900 600" width="900" height="600" xmlns="http://www.w3.org/2000/svg" xmlns:xlink="http://www.w3.org/1999/xlink" version="1.1"><rect x="0" y="0" width="900" height="600" fill="#FFFFFF"></rect><defs><linearGradient id="grad1_0" x1="33.3%" y1="0%" x2="100%" y2="100%"><stop offset="20%" stop-color="#ffffff" stop-opacity="1"></stop><stop offset="80%" stop-color="#ffffff" stop-opacity="1"></stop></linearGradient></defs><defs><linearGradient id="grad2_0" x1="0%" y1="0%" x2="66.7%" y2="100%"><stop offset="20%" stop-color="#ffffff" stop-opacity="1"></stop><stop offset="80%" stop-color="#ffffff" stop-opacity="1"></stop></linearGradient></defs><g transform="translate(900, 0)"><path d="M0 351.5C-46.8 345.4 -93.6 339.2 -132.4 319.7C-171.2 300.1 -202 267.1 -235.5 235.5C-268.9 203.8 -305 173.5 -324.8 134.5C-344.6 95.5 -348.1 47.8 -351.5 0L0 0Z" fill="#d5dce7"></path></g><g transform="translate(0, 600)"><path d="M0 -351.5C47 -347.3 94 -343 134.5 -324.8C175 -306.6 209 -274.4 241.1 -241.1C273.2 -207.9 303.4 -173.5 321.5 -133.2C339.6 -92.8 345.6 -46.4 351.5 0L0 0Z" fill="#d5dce7"></path></g></svg>