<?xml version="1.0" standalone="no"?>
<svg xmlns="http://www.w3.org/2000/svg" version="1.1" xmlns:xlink="http://www.w3.org/1999/xlink" width="512" height="512" x="0" y="0" viewBox="0 0 512 512" style="enable-background:new 0 0 512 512" xml:space="preserve" class=""><g><path d="M287.066 304.2V15c0-8.284-6.716-15-15-15H15C6.716 0 0 6.716 0 15v289.2c0 8.284 6.716 15 15 15h26.988v65.333c0 8.305 6.746 15 14.997 15a14.99 14.99 0 0 0 10.609-4.394l75.939-75.939h128.533c8.285 0 15-6.716 15-15zm-64.883-60.007c-1.932 6.521-7.904 10.744-14.377 10.744-5.331 0-34.925-8.416-64.221-32.694-27.843 22.369-59.626 32.694-64.32 32.694-6.29 0-12.147-3.985-14.235-10.282-2.607-7.863 1.652-16.352 9.516-18.959 18.937-6.302 34.599-14.87 47.508-24.751a166.66 166.66 0 0 1-12.044-16.133l-11.147-16.98c-4.547-6.925-2.619-16.225 4.307-20.771 6.925-4.547 16.225-2.618 20.771 4.307l11.15 16.984a139.323 139.323 0 0 0 8.778 11.931c14.916-17.474 23.933-36.642 29.031-53.882H79.267c-8.284 0-15-6.716-15-15s6.716-15 15-15h49.267V79.267c0-8.284 6.716-15 15-15s15 6.716 15 15V96.4H207.8c8.284 0 15 6.716 15 15s-6.716 15-15 15h-3.849c-5.669 23.215-17.307 50.55-38.596 74.945a139.431 139.431 0 0 0 46.705 24.206c7.943 2.352 12.475 10.699 10.123 18.642z" fill="#004f7c" opacity="1" data-original="#000000" class=""/><path d="M497 112.467H317.066v174.815l16.885-67.543a35.516 35.516 0 0 1 34.508-26.939 35.52 35.52 0 0 1 34.522 26.938l28.238 112.957c2.009 8.037-2.878 16.181-10.915 18.19s-16.181-2.878-18.19-10.914l-5.192-20.771H340.01l-5.192 20.771c-2.009 8.037-10.153 12.923-18.19 10.914-7.468-1.867-12.208-9.032-11.23-16.485-8.239 9.085-20.13 14.8-33.332 14.8h-47.133v67.467c0 8.284 6.716 15 15 15h128.533l75.939 75.939A14.994 14.994 0 0 0 455.014 512c8.251 0 14.997-6.695 14.997-15v-65.333H497c8.284 0 15-6.716 15-15v-289.2c0-8.284-6.716-15-15-15z" fill="#004f7c" opacity="1" data-original="#000000" class=""/><path d="M368.475 222.8a5.563 5.563 0 0 0-5.418 4.215L347.511 289.2h41.912l-15.546-62.186a5.559 5.559 0 0 0-5.402-4.214z" fill="#004f7c" opacity="1" data-original="#000000" class=""/></g></svg>