<?xml version="1.0" standalone="no"?>
<svg xmlns="http://www.w3.org/2000/svg" version="1.1" xmlns:xlink="http://www.w3.org/1999/xlink" width="512" height="512" x="0" y="0" viewBox="0 0 64 64" style="enable-background:new 0 0 512 512" xml:space="preserve" class=""><g><path fill="#e2e7f6" d="M2 2h44v60H2z" opacity="1" data-original="#e2e7f6" class=""/><path fill="#f2f2f2" d="M2 59h38a3 3 0 0 0 3-3V2H2z" opacity="1" data-original="#f2f2f2" class=""/><g fill="#c8cded"><path d="M21 21h10v2H21zM21 17h9v2h-9zM21 37h10v2H21zM21 33h10v2H21zM21 53h10v2H21zM21 49h10v2H21z" fill="#c8cded" opacity="1" data-original="#c8cded" class=""/></g><circle cx="12" cy="20" r="6" fill="#474747" opacity="1" data-original="#474747" class=""/><circle cx="12" cy="20" r="6" fill="#78a0d4" opacity="1" data-original="#78a0d4" class=""/><path fill="#5e87ca" d="M11 6h26v4H11z" opacity="1" data-original="#5e87ca"/><path fill="#78a0d4" d="M35 7V6H11v2h23a1 1 0 0 0 1-1z" opacity="1" data-original="#78a0d4" class=""/><path fill="#474747" d="M11 23a1 1 0 0 1-.707-.293l-2-2 1.414-1.414L11 20.586l3.293-3.293 1.414 1.414-4 4A1 1 0 0 1 11 23z" opacity="1" data-original="#474747" class=""/><circle cx="12" cy="36" r="6" fill="#78a0d4" opacity="1" data-original="#78a0d4" class=""/><path fill="#474747" d="M11 39a1 1 0 0 1-.707-.293l-2-2 1.414-1.414L11 36.586l3.293-3.293 1.414 1.414-4 4A1 1 0 0 1 11 39z" opacity="1" data-original="#474747" class=""/><circle cx="12" cy="52" r="6" fill="#78a0d4" opacity="1" data-original="#78a0d4" class=""/><path fill="#474747" d="M11 55a1 1 0 0 1-.707-.293l-2-2 1.414-1.414L11 52.586l3.293-3.293 1.414 1.414-4 4A1 1 0 0 1 11 55z" opacity="1" data-original="#474747" class=""/><rect width="32" height="42" x="30" y="20" fill="#526dbe" rx="2" opacity="1" data-original="#939393" class=""/><path fill="#526dbe" d="M32 20a2 2 0 0 0-2 2v37h26a2 2 0 0 0 2-2V20z" opacity="1" data-original="#b5b5b5" class=""/><path fill="#f2f2f2" d="M34 24h24v10H34z" opacity="1" data-original="#f2f2f2" class=""/><path fill="#474747" d="M34 38h4v4h-4zM50 38h8v4h-8z" opacity="1" data-original="#474747" class=""/><path fill="#686868" d="M50 38v2h4a1 1 0 0 0 1-1v-1z" opacity="1" data-original="#686868" class=""/><path fill="#474747" d="M34 46h4v4h-4zM34 54h4v4h-4zM42 38h4v4h-4z" opacity="1" data-original="#474747" class=""/><path fill="#686868" d="M44 39v-1h-2v2h1a1 1 0 0 0 1-1z" opacity="1" data-original="#686868" class=""/><path fill="#474747" d="M42 46h4v4h-4zM42 54h4v4h-4zM50 46h8v12h-8z" opacity="1" data-original="#474747" class=""/><path fill="#686868" d="M50 46v9h3a2 2 0 0 0 2-2v-7z" opacity="1" data-original="#686868" class=""/><circle cx="46" cy="20" r="10" fill="#3b5892" opacity="1" data-original="#3b5892" class=""/><path fill="#4c6cb5" d="M54 19a9.984 9.984 0 0 0-4.543-8.373 9.991 9.991 0 0 0-8.914 17.746A9.976 9.976 0 0 0 54 19z" opacity="1" data-original="#4c6cb5" class=""/><path fill="#f2f2f2" d="M47 24h-2v-.5a6.89 6.89 0 0 1 2.358-5.036 1.991 1.991 0 0 0 .609-1.839 2.025 2.025 0 0 0-1.6-1.6A2 2 0 0 0 44 17h-2a4 4 0 0 1 4.717-3.937 4 4 0 0 1 2 6.873A4.914 4.914 0 0 0 47 23.5zM45 25h2v2h-2z" opacity="1" data-original="#f2f2f2" class=""/><path fill="#686868" d="M44 47v-1h-2v2h1a1 1 0 0 0 1-1zM44 55v-1h-2v2h1a1 1 0 0 0 1-1zM36 55v-1h-2v2h1a1 1 0 0 0 1-1zM36 47v-1h-2v2h1a1 1 0 0 0 1-1zM36 39v-1h-2v2h1a1 1 0 0 0 1-1z" opacity="1" data-original="#686868" class=""/></g></svg>