<?xml version="1.0" standalone="no"?>
<svg xmlns="http://www.w3.org/2000/svg" version="1.1" xmlns:xlink="http://www.w3.org/1999/xlink" width="512" height="512" x="0" y="0" viewBox="0 0 64 64" style="enable-background:new 0 0 512 512" xml:space="preserve"><g><path d="M29.184 21A3 3 0 0 1 32 19h3.051A11.01 11.01 0 0 1 45 9.051V3H3v58h26.184A2.966 2.966 0 0 1 29 60v-5h-8v-2h8v-2h-8v-2h8V39h-8v-2h8v-2h-8v-2h8V23h-8v-2zM30 19h-9v-2h9zM12 59a7 7 0 1 1 7-7 7.009 7.009 0 0 1-7 7zm0-16a7 7 0 1 1 7-7 7.009 7.009 0 0 1-7 7zm0-16a7 7 0 1 1 7-7 7.009 7.009 0 0 1-7 7zm-1-16a1 1 0 0 1-1-1V6a1 1 0 0 1 1-1h26a1 1 0 0 1 1 1v4a1 1 0 0 1-1 1zM35 55h2v2h-2z" fill="#6c67a5" opacity="1" data-original="#000000"/><path d="M37 20a9 9 0 1 0 9-9 9.01 9.01 0 0 0-9 9zm10 7h-2v-2h2zm-3.571-13.064a4 4 0 0 1 5.288 6A4.914 4.914 0 0 0 47 23.5v.5h-2v-.5a6.89 6.89 0 0 1 2.358-5.036 1.991 1.991 0 0 0 .609-1.839 2.025 2.025 0 0 0-1.6-1.6A2 2 0 0 0 44 17h-2a3.991 3.991 0 0 1 1.429-3.064zM43 55h2v2h-2zM12 7h24v2H12zM35 39h2v2h-2zM12 47a5 5 0 1 0 5 5 5.006 5.006 0 0 0-5-5zm-.293 7.707a1 1 0 0 1-1.414 0l-2-2 1.414-1.414L11 52.586l3.293-3.293 1.414 1.414z" fill="#6c67a5" opacity="1" data-original="#000000"/><path d="M46 31a11 11 0 0 1-9.786-6H35v8h22v-8h-1.214A11 11 0 0 1 46 31zM12 31a5 5 0 1 0 5 5 5.006 5.006 0 0 0-5-5zm-.293 7.707a1 1 0 0 1-1.414 0l-2-2 1.414-1.414L11 36.586l3.293-3.293 1.414 1.414zM12 15a5 5 0 1 0 5 5 5.006 5.006 0 0 0-5-5zm-.293 7.707a1 1 0 0 1-1.414 0l-2-2 1.414-1.414L11 20.586l3.293-3.293 1.414 1.414zM35 47h2v2h-2z" fill="#6c67a5" opacity="1" data-original="#000000"/><path d="M60 21h-3.051a10.9 10.9 0 0 1-.375 2H58a1 1 0 0 1 1 1v10a1 1 0 0 1-1 1H34a1 1 0 0 1-1-1V24a1 1 0 0 1 1-1h1.426a10.9 10.9 0 0 1-.375-2H32a1 1 0 0 0-1 1v38a1 1 0 0 0 1 1h28a1 1 0 0 0 1-1V22a1 1 0 0 0-1-1zM39 58a1 1 0 0 1-1 1h-4a1 1 0 0 1-1-1v-4a1 1 0 0 1 1-1h4a1 1 0 0 1 1 1zm0-8a1 1 0 0 1-1 1h-4a1 1 0 0 1-1-1v-4a1 1 0 0 1 1-1h4a1 1 0 0 1 1 1zm0-8a1 1 0 0 1-1 1h-4a1 1 0 0 1-1-1v-4a1 1 0 0 1 1-1h4a1 1 0 0 1 1 1zm8 16a1 1 0 0 1-1 1h-4a1 1 0 0 1-1-1v-4a1 1 0 0 1 1-1h4a1 1 0 0 1 1 1zm0-8a1 1 0 0 1-1 1h-4a1 1 0 0 1-1-1v-4a1 1 0 0 1 1-1h4a1 1 0 0 1 1 1zm0-8a1 1 0 0 1-1 1h-4a1 1 0 0 1-1-1v-4a1 1 0 0 1 1-1h4a1 1 0 0 1 1 1zm12 16a1 1 0 0 1-1 1h-8a1 1 0 0 1-1-1V46a1 1 0 0 1 1-1h8a1 1 0 0 1 1 1zm0-16a1 1 0 0 1-1 1h-8a1 1 0 0 1-1-1v-4a1 1 0 0 1 1-1h8a1 1 0 0 1 1 1z" fill="#6c67a5" opacity="1" data-original="#000000"/><path d="M51 39h6v2h-6zM43 39h2v2h-2zM51 47h6v10h-6zM43 47h2v2h-2z" fill="#6c67a5" opacity="1" data-original="#000000"/></g></svg>