<?xml version="1.0" standalone="no"?>
<svg xmlns="http://www.w3.org/2000/svg" version="1.1" xmlns:xlink="http://www.w3.org/1999/xlink" width="512" height="512" x="0" y="0" viewBox="0 0 512 512" style="enable-background:new 0 0 512 512" xml:space="preserve" class=""><g><path d="M382 252c-71.797 0-130 58.203-130 130s58.203 130 130 130 130-58.203 130-130-58.203-130-130-130zm0 225c-8.284 0-15-6.716-15-15s6.716-15 15-15 15 6.716 15 15-6.716 15-15 15zm22.724-96.153c-2.322 1.361-7.724 5.214-7.724 11.596V402c0 8.284-6.716 15-15 15s-15-6.716-15-15v-9.557c0-15.195 8.434-29.207 22.56-37.482 4.59-2.688 7.44-7.655 7.44-12.961 0-8.271-6.729-15-15-15s-15 6.729-15 15c0 8.284-6.716 15-15 15s-15-6.716-15-15c0-24.813 20.187-45 45-45s45 20.187 45 45c0 15.912-8.536 30.797-22.276 38.847z" fill="#004f7c" opacity="1" data-original="#000000" class=""/><circle cx="175" cy="245" r="15" fill="#004f7c" opacity="1" data-original="#000000" class=""/><path d="M385 60H204.271l-17.562-35.125C179.036 9.531 163.613 0 146.459 0H45C20.187 0 0 20.187 0 45v260c0 24.813 20.187 45 45 45h180.217C240.083 277.057 304.731 222 382 222c16.717 0 32.841 2.582 48 7.359V105c0-24.813-20.187-45-45-45zM255 200c-8.284 0-15-6.716-15-15 0-12.055-7.232-22.738-18.426-27.215l-1.574-.63V245c0 24.813-20.187 45-45 45s-45-20.187-45-45 20.187-45 45-45c5.259 0 10.305.915 15 2.58V135c0-10.612 10.718-17.868 20.571-13.927l22.146 8.858C255.365 138.99 270 160.606 270 185c0 8.284-6.716 15-15 15z" fill="#004f7c" opacity="1" data-original="#000000" class=""/></g></svg>