<?xml version="1.0" standalone="no"?>
<svg xmlns="http://www.w3.org/2000/svg" version="1.1" xmlns:xlink="http://www.w3.org/1999/xlink" width="512" height="512" x="0" y="0" viewBox="0 0 512 512" style="enable-background:new 0 0 512 512" xml:space="preserve" class=""><g><path fill="#28adfc" d="M385 350H45c-24.813 0-45-20.187-45-45V45C0 20.187 20.187 0 45 0h101.459c17.154 0 32.577 9.531 40.249 24.875L204.271 60H385c24.813 0 45 20.187 45 45v200c0 24.813-20.187 45-45 45z" opacity="1" data-original="#ff7038" class=""/><path fill="#1993ff" d="M385 60H215v290h170c24.813 0 45-20.187 45-45V105c0-24.813-20.187-45-45-45z" opacity="1" data-original="#ff193d" class=""/><circle cx="367" cy="367" r="145" fill="#ef7e1a" opacity="1" data-original="#fff261" class=""/><path fill="#ff9100" d="M367 222v290c80.081 0 145-64.919 145-145s-64.919-145-145-145z" opacity="1" data-original="#ffcd00" class=""/><path fill="#0a617d" d="M367 282c-24.813 0-45 20.187-45 45 0 8.284 6.716 15 15 15s15-6.716 15-15c0-8.271 6.729-15 15-15s15 6.729 15 15c0 5.306-2.851 10.273-7.44 12.961-14.126 8.275-22.56 22.287-22.56 37.482V387c0 8.284 6.716 15 15 15s15-6.716 15-15v-9.557c0-6.383 5.401-10.236 7.724-11.596C403.464 357.797 412 342.912 412 327c0-24.813-20.187-45-45-45z" opacity="1" data-original="#0a617d" class=""/><path fill="#00465f" d="M382 327c0 5.306-2.851 10.273-7.44 12.961a49.337 49.337 0 0 0-7.56 5.443V402c8.284 0 15-6.716 15-15v-9.557c0-6.383 5.401-10.236 7.724-11.596C403.464 357.797 412 342.912 412 327c0-24.813-20.187-45-45-45v30c8.271 0 15 6.729 15 15z" opacity="1" data-original="#00465f" class=""/><circle cx="367" cy="447" r="15" fill="#0a617d" opacity="1" data-original="#0a617d" class=""/><path fill="#00465f" d="M382 447c0-8.284-6.716-15-15-15v30c8.284 0 15-6.716 15-15z" opacity="1" data-original="#00465f" class=""/><path fill="#fff4f4" d="m242.717 129.931-22.146-8.858A15.002 15.002 0 0 0 200 135v80.755a37.527 37.527 0 0 0-7.5-.755c-20.678 0-37.5 16.823-37.5 37.5s16.822 37.5 37.5 37.5 37.5-16.823 37.5-37.5v-95.344l1.574.63C242.768 162.262 250 172.945 250 185c0 8.284 6.716 15 15 15s15-6.716 15-15c0-24.394-14.635-46.01-37.283-55.069z" opacity="1" data-original="#fff4f4" class=""/><path fill="#dfdef5" d="m242.717 129.931-22.146-8.858a14.984 14.984 0 0 0-5.571-1.062V282.48c9.102-6.848 15-17.737 15-29.979v-95.344l1.574.63C242.768 162.262 250 172.945 250 185c0 8.284 6.716 15 15 15s15-6.716 15-15c0-24.394-14.635-46.01-37.283-55.069z" opacity="1" data-original="#dfdef5" class=""/></g></svg>