<?xml version="1.0" standalone="no"?>
<svg xmlns="http://www.w3.org/2000/svg" version="1.1" xmlns:xlink="http://www.w3.org/1999/xlink" width="512" height="512" x="0" y="0" viewBox="0 0 512 512" style="enable-background:new 0 0 512 512" xml:space="preserve" class=""><g><path d="M301 0v76h-30c-16.569 0-30 13.431-30 30s13.431 30 30 30h30v75h90v-45c0-8.276 6.724-15 15-15s15 6.724 15 15v45h91V0zM68 316c0 16.569 13.431 30 30 30s30-13.431 30-30v-30h68v-75h-30c-8.284 0-15-6.716-15-15s6.716-15 15-15h30V91H0v195h68zM354 316v-30c0-16.569-13.431-30-30-30s-30 13.431-30 30v30h-68v38c33.091 0 60 26.909 60 60s-26.909 60-60 60v38h195V316z" fill="#004f7c" opacity="1" data-original="#000000" class=""/><path d="M226 444c16.569 0 30-13.431 30-30s-13.431-30-30-30h-30v-68h-38c0 33.091-26.909 60-60 60s-60-26.909-60-60H0v196h196v-68z" fill="#004f7c" opacity="1" data-original="#000000" class=""/></g></svg>