<?xml version="1.0" standalone="no"?>
<svg xmlns="http://www.w3.org/2000/svg" version="1.1" xmlns:xlink="http://www.w3.org/1999/xlink" width="512" height="512" x="0" y="0" viewBox="0 0 32 32" style="enable-background:new 0 0 512 512" xml:space="preserve" class=""><g><path fill="#f7f7f7" d="M28.238 12.85c-.475-.487-.963-1-1.15-1.438s-.175-1.087-.188-1.75c-.012-1.212-.037-2.6-1-3.562s-2.35-.988-3.562-1c-.663-.013-1.338-.025-1.75-.188s-.95-.675-1.438-1.15C18.288 2.938 17.3 2 16 2s-2.287.937-3.15 1.762c-.487.475-1 .963-1.437 1.15s-1.088.175-1.75.188c-1.213.013-2.6.037-3.563 1s-.987 2.35-1 3.563c-.012.662-.025 1.337-.187 1.75s-.675.95-1.15 1.437C2.938 13.713 2 14.7 2 16s.938 2.288 1.763 3.15c.475.487.962 1 1.15 1.438s.175 1.087.187 1.75c.013 1.212.038 2.6 1 3.562s2.35.988 3.563 1c.662.013 1.337.025 1.75.188s.95.674 1.437 1.15C13.713 29.061 14.7 30 16 30s2.288-.938 3.15-1.763c.488-.475 1-.962 1.438-1.15s1.087-.175 1.75-.187c1.212-.013 2.6-.037 3.562-1s.988-2.35 1-3.563c.013-.662.025-1.337.188-1.75s.675-.95 1.15-1.437C29.063 18.287 30 17.3 30 16s-.938-2.288-1.762-3.15zM16 24a1.5 1.5 0 1 1 0-3 1.5 1.5 0 0 1 0 3zm1-6.112V18a1 1 0 0 1-2 0v-1a1 1 0 0 1 1-1 2.5 2.5 0 1 0-2.5-2.5 1 1 0 0 1-2 0 4.5 4.5 0 1 1 5.5 4.387z" opacity="1" data-original="#000000" class=""/></g></svg>