<svg id="visual" viewBox="0 0 1140 250" width="1140" height="250" xmlns="http://www.w3.org/2000/svg" xmlns:xlink="http://www.w3.org/1999/xlink" version="1.1"><path d="M0 51L17.3 52.3C34.7 53.7 69.3 56.3 103.8 53C138.3 49.7 172.7 40.3 207.2 37.3C241.7 34.3 276.3 37.7 311 41.8C345.7 46 380.3 51 414.8 55.7C449.3 60.3 483.7 64.7 518.2 60.2C552.7 55.7 587.3 42.3 621.8 39C656.3 35.7 690.7 42.3 725.2 44.8C759.7 47.3 794.3 45.7 829 43.2C863.7 40.7 898.3 37.3 932.8 34C967.3 30.7 1001.7 27.3 1036.2 28.2C1070.7 29 1105.3 34 1122.7 36.5L1140 39L1140 0L1122.7 0C1105.3 0 1070.7 0 1036.2 0C1001.7 0 967.3 0 932.8 0C898.3 0 863.7 0 829 0C794.3 0 759.7 0 725.2 0C690.7 0 656.3 0 621.8 0C587.3 0 552.7 0 518.2 0C483.7 0 449.3 0 414.8 0C380.3 0 345.7 0 311 0C276.3 0 241.7 0 207.2 0C172.7 0 138.3 0 103.8 0C69.3 0 34.7 0 17.3 0L0 0Z" fill="#2874a6"></path><path d="M0 89L17.3 92.7C34.7 96.3 69.3 103.7 103.8 99.8C138.3 96 172.7 81 207.2 74.8C241.7 68.7 276.3 71.3 311 73.5C345.7 75.7 380.3 77.3 414.8 83.5C449.3 89.7 483.7 100.3 518.2 97.3C552.7 94.3 587.3 77.7 621.8 72.7C656.3 67.7 690.7 74.3 725.2 79.8C759.7 85.3 794.3 89.7 829 84.7C863.7 79.7 898.3 65.3 932.8 58.7C967.3 52 1001.7 53 1036.2 56.3C1070.7 59.7 1105.3 65.3 1122.7 68.2L1140 71L1140 37L1122.7 34.5C1105.3 32 1070.7 27 1036.2 26.2C1001.7 25.3 967.3 28.7 932.8 32C898.3 35.3 863.7 38.7 829 41.2C794.3 43.7 759.7 45.3 725.2 42.8C690.7 40.3 656.3 33.7 621.8 37C587.3 40.3 552.7 53.7 518.2 58.2C483.7 62.7 449.3 58.3 414.8 53.7C380.3 49 345.7 44 311 39.8C276.3 35.7 241.7 32.3 207.2 35.3C172.7 38.3 138.3 47.7 103.8 51C69.3 54.3 34.7 51.7 17.3 50.3L0 49Z" fill="#176191"></path><path d="M0 114L17.3 116.5C34.7 119 69.3 124 103.8 121C138.3 118 172.7 107 207.2 100.7C241.7 94.3 276.3 92.7 311 93.2C345.7 93.7 380.3 96.3 414.8 102.2C449.3 108 483.7 117 518.2 115.3C552.7 113.7 587.3 101.3 621.8 100.5C656.3 99.7 690.7 110.3 725.2 116.2C759.7 122 794.3 123 829 117.7C863.7 112.3 898.3 100.7 932.8 95.2C967.3 89.7 1001.7 90.3 1036.2 91.2C1070.7 92 1105.3 93 1122.7 93.5L1140 94L1140 69L1122.7 66.2C1105.3 63.3 1070.7 57.7 1036.2 54.3C1001.7 51 967.3 50 932.8 56.7C898.3 63.3 863.7 77.7 829 82.7C794.3 87.7 759.7 83.3 725.2 77.8C690.7 72.3 656.3 65.7 621.8 70.7C587.3 75.7 552.7 92.3 518.2 95.3C483.7 98.3 449.3 87.7 414.8 81.5C380.3 75.3 345.7 73.7 311 71.5C276.3 69.3 241.7 66.7 207.2 72.8C172.7 79 138.3 94 103.8 97.8C69.3 101.7 34.7 94.3 17.3 90.7L0 87Z" fill="#004f7c"></path><path d="M0 154L17.3 158.2C34.7 162.3 69.3 170.7 103.8 168.5C138.3 166.3 172.7 153.7 207.2 157.3C241.7 161 276.3 181 311 186.8C345.7 192.7 380.3 184.3 414.8 179.3C449.3 174.3 483.7 172.7 518.2 168.2C552.7 163.7 587.3 156.3 621.8 158.5C656.3 160.7 690.7 172.3 725.2 175.7C759.7 179 794.3 174 829 167.7C863.7 161.3 898.3 153.7 932.8 156.2C967.3 158.7 1001.7 171.3 1036.2 179.7C1070.7 188 1105.3 192 1122.7 194L1140 196L1140 92L1122.7 91.5C1105.3 91 1070.7 90 1036.2 89.2C1001.7 88.3 967.3 87.7 932.8 93.2C898.3 98.7 863.7 110.3 829 115.7C794.3 121 759.7 120 725.2 114.2C690.7 108.3 656.3 97.7 621.8 98.5C587.3 99.3 552.7 111.7 518.2 113.3C483.7 115 449.3 106 414.8 100.2C380.3 94.3 345.7 91.7 311 91.2C276.3 90.7 241.7 92.3 207.2 98.7C172.7 105 138.3 116 103.8 119C69.3 122 34.7 117 17.3 114.5L0 112Z" fill="#00456b"></path><path d="M0 251L17.3 251C34.7 251 69.3 251 103.8 251C138.3 251 172.7 251 207.2 251C241.7 251 276.3 251 311 251C345.7 251 380.3 251 414.8 251C449.3 251 483.7 251 518.2 251C552.7 251 587.3 251 621.8 251C656.3 251 690.7 251 725.2 251C759.7 251 794.3 251 829 251C863.7 251 898.3 251 932.8 251C967.3 251 1001.7 251 1036.2 251C1070.7 251 1105.3 251 1122.7 251L1140 251L1140 194L1122.7 192C1105.3 190 1070.7 186 1036.2 177.7C1001.7 169.3 967.3 156.7 932.8 154.2C898.3 151.7 863.7 159.3 829 165.7C794.3 172 759.7 177 725.2 173.7C690.7 170.3 656.3 158.7 621.8 156.5C587.3 154.3 552.7 161.7 518.2 166.2C483.7 170.7 449.3 172.3 414.8 177.3C380.3 182.3 345.7 190.7 311 184.8C276.3 179 241.7 159 207.2 155.3C172.7 151.7 138.3 164.3 103.8 166.5C69.3 168.7 34.7 160.3 17.3 156.2L0 152Z" fill="#003b5b"></path></svg>