<svg id="visual" viewBox="0 0 500 266" width="500" height="266" xmlns="http://www.w3.org/2000/svg" xmlns:xlink="http://www.w3.org/1999/xlink" version="1.1"><path d="M0 14L22 14L22 17L43 17L43 17L65 17L65 9L87 9L87 14L109 14L109 12L130 12L130 6L152 6L152 14L174 14L174 6L196 6L196 17L217 17L217 9L239 9L239 9L261 9L261 9L283 9L283 12L304 12L304 17L326 17L326 12L348 12L348 9L370 9L370 14L391 14L391 6L413 6L413 12L435 12L435 6L457 6L457 12L478 12L478 14L500 14L500 17L500 0L500 0L478 0L478 0L457 0L457 0L435 0L435 0L413 0L413 0L391 0L391 0L370 0L370 0L348 0L348 0L326 0L326 0L304 0L304 0L283 0L283 0L261 0L261 0L239 0L239 0L217 0L217 0L196 0L196 0L174 0L174 0L152 0L152 0L130 0L130 0L109 0L109 0L87 0L87 0L65 0L65 0L43 0L43 0L22 0L22 0L0 0Z" fill="#0f5983"></path><path d="M0 28L22 28L22 30L43 30L43 38L65 38L65 22L87 22L87 28L109 28L109 30L130 30L130 14L152 14L152 36L174 36L174 30L196 30L196 36L217 36L217 25L239 25L239 33L261 33L261 20L283 20L283 22L304 22L304 38L326 38L326 20L348 20L348 33L370 33L370 25L391 25L391 28L413 28L413 30L435 30L435 22L457 22L457 28L478 28L478 33L500 33L500 28L500 15L500 12L478 12L478 10L457 10L457 4L435 4L435 10L413 10L413 4L391 4L391 12L370 12L370 7L348 7L348 10L326 10L326 15L304 15L304 10L283 10L283 7L261 7L261 7L239 7L239 7L217 7L217 15L196 15L196 4L174 4L174 12L152 12L152 4L130 4L130 10L109 10L109 12L87 12L87 7L65 7L65 15L43 15L43 15L22 15L22 12L0 12Z" fill="#0c5179"></path><path d="M0 36L22 36L22 36L43 36L43 46L65 46L65 28L87 28L87 38L109 38L109 36L130 36L130 22L152 22L152 41L174 41L174 38L196 38L196 52L217 52L217 36L239 36L239 38L261 38L261 36L283 36L283 30L304 30L304 46L326 46L326 28L348 28L348 38L370 38L370 36L391 36L391 36L413 36L413 41L435 41L435 38L457 38L457 41L478 41L478 38L500 38L500 44L500 26L500 31L478 31L478 26L457 26L457 20L435 20L435 28L413 28L413 26L391 26L391 23L370 23L370 31L348 31L348 18L326 18L326 36L304 36L304 20L283 20L283 18L261 18L261 31L239 31L239 23L217 23L217 34L196 34L196 28L174 28L174 34L152 34L152 12L130 12L130 28L109 28L109 26L87 26L87 20L65 20L65 36L43 36L43 28L22 28L22 26L0 26Z" fill="#084a6e"></path><path d="M0 62L22 62L22 57L43 57L43 68L65 68L65 52L87 52L87 62L109 62L109 49L130 49L130 46L152 46L152 70L174 70L174 52L196 52L196 68L217 68L217 68L239 68L239 49L261 49L261 70L283 70L283 52L304 52L304 73L326 73L326 54L348 54L348 57L370 57L370 54L391 54L391 49L413 49L413 62L435 62L435 49L457 49L457 75L478 75L478 70L500 70L500 65L500 42L500 36L478 36L478 39L457 39L457 36L435 36L435 39L413 39L413 34L391 34L391 34L370 34L370 36L348 36L348 26L326 26L326 44L304 44L304 28L283 28L283 34L261 34L261 36L239 36L239 34L217 34L217 50L196 50L196 36L174 36L174 39L152 39L152 20L130 20L130 34L109 34L109 36L87 36L87 26L65 26L65 44L43 44L43 34L22 34L22 34L0 34Z" fill="#054264"></path><path d="M0 89L22 89L22 83L43 83L43 86L65 86L65 65L87 65L87 73L109 73L109 60L130 60L130 57L152 57L152 94L174 94L174 75L196 75L196 75L217 75L217 89L239 89L239 70L261 70L261 94L283 94L283 70L304 70L304 83L326 83L326 73L348 73L348 73L370 73L370 68L391 68L391 70L413 70L413 81L435 81L435 60L457 60L457 89L478 89L478 83L500 83L500 81L500 63L500 68L478 68L478 73L457 73L457 47L435 47L435 60L413 60L413 47L391 47L391 52L370 52L370 55L348 55L348 52L326 52L326 71L304 71L304 50L283 50L283 68L261 68L261 47L239 47L239 66L217 66L217 66L196 66L196 50L174 50L174 68L152 68L152 44L130 44L130 47L109 47L109 60L87 60L87 50L65 50L65 66L43 66L43 55L22 55L22 60L0 60Z" fill="#033b5a"></path><path d="M0 155L22 155L22 145L43 145L43 147L65 147L65 118L87 118L87 123L109 123L109 97L130 97L130 110L152 110L152 137L174 137L174 150L196 150L196 123L217 123L217 147L239 147L239 137L261 137L261 121L283 121L283 137L304 137L304 129L326 129L326 131L348 131L348 155L370 155L370 110L391 110L391 115L413 115L413 126L435 126L435 99L457 99L457 158L478 158L478 121L500 121L500 113L500 79L500 81L478 81L478 87L457 87L457 58L435 58L435 79L413 79L413 68L391 68L391 66L370 66L370 71L348 71L348 71L326 71L326 81L304 81L304 68L283 68L283 92L261 92L261 68L239 68L239 87L217 87L217 73L196 73L196 73L174 73L174 92L152 92L152 55L130 55L130 58L109 58L109 71L87 71L87 63L65 63L65 84L43 84L43 81L22 81L22 87L0 87Z" fill="#013451"></path><path d="M0 163L22 163L22 153L43 153L43 153L65 153L65 123L87 123L87 129L109 129L109 105L130 105L130 123L152 123L152 142L174 142L174 155L196 155L196 131L217 131L217 153L239 153L239 147L261 147L261 126L283 126L283 145L304 145L304 142L326 142L326 145L348 145L348 166L370 166L370 115L391 115L391 123L413 123L413 134L435 134L435 110L457 110L457 169L478 169L478 131L500 131L500 126L500 111L500 119L478 119L478 156L457 156L457 97L435 97L435 124L413 124L413 113L391 113L391 108L370 108L370 153L348 153L348 129L326 129L326 127L304 127L304 135L283 135L283 119L261 119L261 135L239 135L239 145L217 145L217 121L196 121L196 148L174 148L174 135L152 135L152 108L130 108L130 95L109 95L109 121L87 121L87 116L65 116L65 145L43 145L43 143L22 143L22 153L0 153Z" fill="#002f4a"></path><path d="M0 187L22 187L22 193L43 193L43 179L65 179L65 198L87 198L87 206L109 206L109 187L130 187L130 182L152 182L152 206L174 206L174 179L196 179L196 179L217 179L217 193L239 193L239 182L261 182L261 187L283 187L283 203L304 203L304 177L326 177L326 187L348 187L348 208L370 208L370 166L391 166L391 171L413 171L413 187L435 187L435 179L457 179L457 195L478 195L478 193L500 193L500 182L500 124L500 129L478 129L478 167L457 167L457 108L435 108L435 132L413 132L413 121L391 121L391 113L370 113L370 164L348 164L348 143L326 143L326 140L304 140L304 143L283 143L283 124L261 124L261 145L239 145L239 151L217 151L217 129L196 129L196 153L174 153L174 140L152 140L152 121L130 121L130 103L109 103L109 127L87 127L87 121L65 121L65 151L43 151L43 151L22 151L22 161L0 161Z" fill="#012d46"></path><path d="M0 201L22 201L22 203L43 203L43 203L65 203L65 214L87 214L87 216L109 216L109 201L130 201L130 201L152 201L152 230L174 230L174 193L196 193L196 195L217 195L217 219L239 219L239 201L261 201L261 208L283 208L283 214L304 214L304 201L326 201L326 203L348 203L348 219L370 219L370 193L391 193L391 198L413 198L413 203L435 203L435 206L457 206L457 216L478 216L478 219L500 219L500 208L500 180L500 191L478 191L478 193L457 193L457 177L435 177L435 185L413 185L413 169L391 169L391 164L370 164L370 206L348 206L348 185L326 185L326 175L304 175L304 201L283 201L283 185L261 185L261 180L239 180L239 191L217 191L217 177L196 177L196 177L174 177L174 204L152 204L152 180L130 180L130 185L109 185L109 204L87 204L87 196L65 196L65 177L43 177L43 191L22 191L22 185L0 185Z" fill="#022b43"></path><path d="M0 211L22 211L22 211L43 211L43 216L65 216L65 232L87 232L87 224L109 224L109 219L130 219L130 219L152 219L152 240L174 240L174 206L196 206L196 203L217 203L217 227L239 227L239 219L261 219L261 216L283 216L283 235L304 235L304 219L326 219L326 214L348 214L348 235L370 235L370 208L391 208L391 219L413 219L413 216L435 216L435 227L457 227L457 227L478 227L478 227L500 227L500 214L500 206L500 217L478 217L478 214L457 214L457 204L435 204L435 201L413 201L413 196L391 196L391 191L370 191L370 217L348 217L348 201L326 201L326 199L304 199L304 212L283 212L283 206L261 206L261 199L239 199L239 217L217 217L217 193L196 193L196 191L174 191L174 228L152 228L152 199L130 199L130 199L109 199L109 214L87 214L87 212L65 212L65 201L43 201L43 201L22 201L22 199L0 199Z" fill="#02293f"></path><path d="M0 222L22 222L22 230L43 230L43 227L65 227L65 246L87 246L87 243L109 243L109 227L130 227L130 235L152 235L152 254L174 254L174 214L196 214L196 219L217 219L217 246L239 246L239 227L261 227L261 232L283 232L283 246L304 246L304 232L326 232L326 222L348 222L348 248L370 248L370 222L391 222L391 232L413 232L413 232L435 232L435 232L457 232L457 240L478 240L478 232L500 232L500 224L500 212L500 225L478 225L478 225L457 225L457 225L435 225L435 214L413 214L413 217L391 217L391 206L370 206L370 233L348 233L348 212L326 212L326 217L304 217L304 233L283 233L283 214L261 214L261 217L239 217L239 225L217 225L217 201L196 201L196 204L174 204L174 238L152 238L152 217L130 217L130 217L109 217L109 222L87 222L87 230L65 230L65 214L43 214L43 209L22 209L22 209L0 209Z" fill="#03273c"></path><path d="M0 267L22 267L22 267L43 267L43 267L65 267L65 267L87 267L87 267L109 267L109 267L130 267L130 267L152 267L152 267L174 267L174 267L196 267L196 267L217 267L217 267L239 267L239 267L261 267L261 267L283 267L283 267L304 267L304 267L326 267L326 267L348 267L348 267L370 267L370 267L391 267L391 267L413 267L413 267L435 267L435 267L457 267L457 267L478 267L478 267L500 267L500 267L500 222L500 230L478 230L478 238L457 238L457 230L435 230L435 230L413 230L413 230L391 230L391 220L370 220L370 246L348 246L348 220L326 220L326 230L304 230L304 244L283 244L283 230L261 230L261 225L239 225L239 244L217 244L217 217L196 217L196 212L174 212L174 252L152 252L152 233L130 233L130 225L109 225L109 241L87 241L87 244L65 244L65 225L43 225L43 228L22 228L22 220L0 220Z" fill="#042538"></path></svg>