<svg id="visual" viewBox="0 0 1140 250" width="1140" height="250" xmlns="http://www.w3.org/2000/svg" xmlns:xlink="http://www.w3.org/1999/xlink" version="1.1"><path d="M0 14L17.3 14.3C34.7 14.7 69.3 15.3 103.8 14.5C138.3 13.7 172.7 11.3 207.2 11.3C241.7 11.3 276.3 13.7 311 14C345.7 14.3 380.3 12.7 414.8 11C449.3 9.3 483.7 7.7 518.2 6.8C552.7 6 587.3 6 621.8 6.8C656.3 7.7 690.7 9.3 725.2 9.8C759.7 10.3 794.3 9.7 829 9.7C863.7 9.7 898.3 10.3 932.8 10.3C967.3 10.3 1001.7 9.7 1036.2 9.3C1070.7 9 1105.3 9 1122.7 9L1140 9L1140 0L1122.7 0C1105.3 0 1070.7 0 1036.2 0C1001.7 0 967.3 0 932.8 0C898.3 0 863.7 0 829 0C794.3 0 759.7 0 725.2 0C690.7 0 656.3 0 621.8 0C587.3 0 552.7 0 518.2 0C483.7 0 449.3 0 414.8 0C380.3 0 345.7 0 311 0C276.3 0 241.7 0 207.2 0C172.7 0 138.3 0 103.8 0C69.3 0 34.7 0 17.3 0L0 0Z" fill="#2874a6"></path><path d="M0 31L17.3 32.7C34.7 34.3 69.3 37.7 103.8 36.5C138.3 35.3 172.7 29.7 207.2 27.7C241.7 25.7 276.3 27.3 311 26.5C345.7 25.7 380.3 22.3 414.8 22.7C449.3 23 483.7 27 518.2 28.2C552.7 29.3 587.3 27.7 621.8 26.8C656.3 26 690.7 26 725.2 26.5C759.7 27 794.3 28 829 29.3C863.7 30.7 898.3 32.3 932.8 32.7C967.3 33 1001.7 32 1036.2 30.7C1070.7 29.3 1105.3 27.7 1122.7 26.8L1140 26L1140 7L1122.7 7C1105.3 7 1070.7 7 1036.2 7.3C1001.7 7.7 967.3 8.3 932.8 8.3C898.3 8.3 863.7 7.7 829 7.7C794.3 7.7 759.7 8.3 725.2 7.8C690.7 7.3 656.3 5.7 621.8 4.8C587.3 4 552.7 4 518.2 4.8C483.7 5.7 449.3 7.3 414.8 9C380.3 10.7 345.7 12.3 311 12C276.3 11.7 241.7 9.3 207.2 9.3C172.7 9.3 138.3 11.7 103.8 12.5C69.3 13.3 34.7 12.7 17.3 12.3L0 12Z" fill="#226d9e"></path><path d="M0 76L17.3 78.5C34.7 81 69.3 86 103.8 82.3C138.3 78.7 172.7 66.3 207.2 63.8C241.7 61.3 276.3 68.7 311 70.7C345.7 72.7 380.3 69.3 414.8 66.5C449.3 63.7 483.7 61.3 518.2 58.5C552.7 55.7 587.3 52.3 621.8 54.3C656.3 56.3 690.7 63.7 725.2 69C759.7 74.3 794.3 77.7 829 78.2C863.7 78.7 898.3 76.3 932.8 76.3C967.3 76.3 1001.7 78.7 1036.2 74.8C1070.7 71 1105.3 61 1122.7 56L1140 51L1140 24L1122.7 24.8C1105.3 25.7 1070.7 27.3 1036.2 28.7C1001.7 30 967.3 31 932.8 30.7C898.3 30.3 863.7 28.7 829 27.3C794.3 26 759.7 25 725.2 24.5C690.7 24 656.3 24 621.8 24.8C587.3 25.7 552.7 27.3 518.2 26.2C483.7 25 449.3 21 414.8 20.7C380.3 20.3 345.7 23.7 311 24.5C276.3 25.3 241.7 23.7 207.2 25.7C172.7 27.7 138.3 33.3 103.8 34.5C69.3 35.7 34.7 32.3 17.3 30.7L0 29Z" fill="#1c6697"></path><path d="M0 96L17.3 99.3C34.7 102.7 69.3 109.3 103.8 107.3C138.3 105.3 172.7 94.7 207.2 92.2C241.7 89.7 276.3 95.3 311 94.8C345.7 94.3 380.3 87.7 414.8 84.3C449.3 81 483.7 81 518.2 79.8C552.7 78.7 587.3 76.3 621.8 76C656.3 75.7 690.7 77.3 725.2 80.7C759.7 84 794.3 89 829 91.8C863.7 94.7 898.3 95.3 932.8 95.7C967.3 96 1001.7 96 1036.2 92.7C1070.7 89.3 1105.3 82.7 1122.7 79.3L1140 76L1140 49L1122.7 54C1105.3 59 1070.7 69 1036.2 72.8C1001.7 76.7 967.3 74.3 932.8 74.3C898.3 74.3 863.7 76.7 829 76.2C794.3 75.7 759.7 72.3 725.2 67C690.7 61.7 656.3 54.3 621.8 52.3C587.3 50.3 552.7 53.7 518.2 56.5C483.7 59.3 449.3 61.7 414.8 64.5C380.3 67.3 345.7 70.7 311 68.7C276.3 66.7 241.7 59.3 207.2 61.8C172.7 64.3 138.3 76.7 103.8 80.3C69.3 84 34.7 79 17.3 76.5L0 74Z" fill="#155f8f"></path><path d="M0 106L17.3 108.5C34.7 111 69.3 116 103.8 113.2C138.3 110.3 172.7 99.7 207.2 97.2C241.7 94.7 276.3 100.3 311 101.2C345.7 102 380.3 98 414.8 96C449.3 94 483.7 94 518.2 92.3C552.7 90.7 587.3 87.3 621.8 86.8C656.3 86.3 690.7 88.7 725.2 92.8C759.7 97 794.3 103 829 106C863.7 109 898.3 109 932.8 108.2C967.3 107.3 1001.7 105.7 1036.2 102.3C1070.7 99 1105.3 94 1122.7 91.5L1140 89L1140 74L1122.7 77.3C1105.3 80.7 1070.7 87.3 1036.2 90.7C1001.7 94 967.3 94 932.8 93.7C898.3 93.3 863.7 92.7 829 89.8C794.3 87 759.7 82 725.2 78.7C690.7 75.3 656.3 73.7 621.8 74C587.3 74.3 552.7 76.7 518.2 77.8C483.7 79 449.3 79 414.8 82.3C380.3 85.7 345.7 92.3 311 92.8C276.3 93.3 241.7 87.7 207.2 90.2C172.7 92.7 138.3 103.3 103.8 105.3C69.3 107.3 34.7 100.7 17.3 97.3L0 94Z" fill="#0e5987"></path><path d="M0 131L17.3 134C34.7 137 69.3 143 103.8 140.5C138.3 138 172.7 127 207.2 124.8C241.7 122.7 276.3 129.3 311 128.5C345.7 127.7 380.3 119.3 414.8 116C449.3 112.7 483.7 114.3 518.2 116.5C552.7 118.7 587.3 121.3 621.8 121.8C656.3 122.3 690.7 120.7 725.2 124.3C759.7 128 794.3 137 829 139.8C863.7 142.7 898.3 139.3 932.8 136C967.3 132.7 1001.7 129.3 1036.2 126.5C1070.7 123.7 1105.3 121.3 1122.7 120.2L1140 119L1140 87L1122.7 89.5C1105.3 92 1070.7 97 1036.2 100.3C1001.7 103.7 967.3 105.3 932.8 106.2C898.3 107 863.7 107 829 104C794.3 101 759.7 95 725.2 90.8C690.7 86.7 656.3 84.3 621.8 84.8C587.3 85.3 552.7 88.7 518.2 90.3C483.7 92 449.3 92 414.8 94C380.3 96 345.7 100 311 99.2C276.3 98.3 241.7 92.7 207.2 95.2C172.7 97.7 138.3 108.3 103.8 111.2C69.3 114 34.7 109 17.3 106.5L0 104Z" fill="#045280"></path><path d="M0 149L17.3 150.7C34.7 152.3 69.3 155.7 103.8 152.3C138.3 149 172.7 139 207.2 138.2C241.7 137.3 276.3 145.7 311 144.3C345.7 143 380.3 132 414.8 127.8C449.3 123.7 483.7 126.3 518.2 128.5C552.7 130.7 587.3 132.3 621.8 133.2C656.3 134 690.7 134 725.2 139.3C759.7 144.7 794.3 155.3 829 156.5C863.7 157.7 898.3 149.3 932.8 144C967.3 138.7 1001.7 136.3 1036.2 134.3C1070.7 132.3 1105.3 130.7 1122.7 129.8L1140 129L1140 117L1122.7 118.2C1105.3 119.3 1070.7 121.7 1036.2 124.5C1001.7 127.3 967.3 130.7 932.8 134C898.3 137.3 863.7 140.7 829 137.8C794.3 135 759.7 126 725.2 122.3C690.7 118.7 656.3 120.3 621.8 119.8C587.3 119.3 552.7 116.7 518.2 114.5C483.7 112.3 449.3 110.7 414.8 114C380.3 117.3 345.7 125.7 311 126.5C276.3 127.3 241.7 120.7 207.2 122.8C172.7 125 138.3 136 103.8 138.5C69.3 141 34.7 135 17.3 132L0 129Z" fill="#004d79"></path><path d="M0 164L17.3 164C34.7 164 69.3 164 103.8 159.3C138.3 154.7 172.7 145.3 207.2 144.5C241.7 143.7 276.3 151.3 311 149.7C345.7 148 380.3 137 414.8 132.8C449.3 128.7 483.7 131.3 518.2 133.8C552.7 136.3 587.3 138.7 621.8 141.2C656.3 143.7 690.7 146.3 725.2 152.7C759.7 159 794.3 169 829 169.3C863.7 169.7 898.3 160.3 932.8 154.8C967.3 149.3 1001.7 147.7 1036.2 145.2C1070.7 142.7 1105.3 139.3 1122.7 137.7L1140 136L1140 127L1122.7 127.8C1105.3 128.7 1070.7 130.3 1036.2 132.3C1001.7 134.3 967.3 136.7 932.8 142C898.3 147.3 863.7 155.7 829 154.5C794.3 153.3 759.7 142.7 725.2 137.3C690.7 132 656.3 132 621.8 131.2C587.3 130.3 552.7 128.7 518.2 126.5C483.7 124.3 449.3 121.7 414.8 125.8C380.3 130 345.7 141 311 142.3C276.3 143.7 241.7 135.3 207.2 136.2C172.7 137 138.3 147 103.8 150.3C69.3 153.7 34.7 150.3 17.3 148.7L0 147Z" fill="#004973"></path><path d="M0 176L17.3 176C34.7 176 69.3 176 103.8 170.7C138.3 165.3 172.7 154.7 207.2 153.8C241.7 153 276.3 162 311 160.7C345.7 159.3 380.3 147.7 414.8 142.3C449.3 137 483.7 138 518.2 140.5C552.7 143 587.3 147 621.8 149.8C656.3 152.7 690.7 154.3 725.2 159.8C759.7 165.3 794.3 174.7 829 176C863.7 177.3 898.3 170.7 932.8 165.2C967.3 159.7 1001.7 155.3 1036.2 152C1070.7 148.7 1105.3 146.3 1122.7 145.2L1140 144L1140 134L1122.7 135.7C1105.3 137.3 1070.7 140.7 1036.2 143.2C1001.7 145.7 967.3 147.3 932.8 152.8C898.3 158.3 863.7 167.7 829 167.3C794.3 167 759.7 157 725.2 150.7C690.7 144.3 656.3 141.7 621.8 139.2C587.3 136.7 552.7 134.3 518.2 131.8C483.7 129.3 449.3 126.7 414.8 130.8C380.3 135 345.7 146 311 147.7C276.3 149.3 241.7 141.7 207.2 142.5C172.7 143.3 138.3 152.7 103.8 157.3C69.3 162 34.7 162 17.3 162L0 162Z" fill="#00466d"></path><path d="M0 226L17.3 223.2C34.7 220.3 69.3 214.7 103.8 214.7C138.3 214.7 172.7 220.3 207.2 222C241.7 223.7 276.3 221.3 311 216.8C345.7 212.3 380.3 205.7 414.8 204.8C449.3 204 483.7 209 518.2 211.8C552.7 214.7 587.3 215.3 621.8 213.7C656.3 212 690.7 208 725.2 208.8C759.7 209.7 794.3 215.3 829 215.3C863.7 215.3 898.3 209.7 932.8 208C967.3 206.3 1001.7 208.7 1036.2 209.5C1070.7 210.3 1105.3 209.7 1122.7 209.3L1140 209L1140 142L1122.7 143.2C1105.3 144.3 1070.7 146.7 1036.2 150C1001.7 153.3 967.3 157.7 932.8 163.2C898.3 168.7 863.7 175.3 829 174C794.3 172.7 759.7 163.3 725.2 157.8C690.7 152.3 656.3 150.7 621.8 147.8C587.3 145 552.7 141 518.2 138.5C483.7 136 449.3 135 414.8 140.3C380.3 145.7 345.7 157.3 311 158.7C276.3 160 241.7 151 207.2 151.8C172.7 152.7 138.3 163.3 103.8 168.7C69.3 174 34.7 174 17.3 174L0 174Z" fill="#004267"></path><path d="M0 234L17.3 231.5C34.7 229 69.3 224 103.8 224.8C138.3 225.7 172.7 232.3 207.2 235.7C241.7 239 276.3 239 311 235.7C345.7 232.3 380.3 225.7 414.8 224.8C449.3 224 483.7 229 518.2 229.8C552.7 230.7 587.3 227.3 621.8 225.2C656.3 223 690.7 222 725.2 224.8C759.7 227.7 794.3 234.3 829 234.8C863.7 235.3 898.3 229.7 932.8 228C967.3 226.3 1001.7 228.7 1036.2 228.2C1070.7 227.7 1105.3 224.3 1122.7 222.7L1140 221L1140 207L1122.7 207.3C1105.3 207.7 1070.7 208.3 1036.2 207.5C1001.7 206.7 967.3 204.3 932.8 206C898.3 207.7 863.7 213.3 829 213.3C794.3 213.3 759.7 207.7 725.2 206.8C690.7 206 656.3 210 621.8 211.7C587.3 213.3 552.7 212.7 518.2 209.8C483.7 207 449.3 202 414.8 202.8C380.3 203.7 345.7 210.3 311 214.8C276.3 219.3 241.7 221.7 207.2 220C172.7 218.3 138.3 212.7 103.8 212.7C69.3 212.7 34.7 218.3 17.3 221.2L0 224Z" fill="#003f61"></path><path d="M0 251L17.3 251C34.7 251 69.3 251 103.8 251C138.3 251 172.7 251 207.2 251C241.7 251 276.3 251 311 251C345.7 251 380.3 251 414.8 251C449.3 251 483.7 251 518.2 251C552.7 251 587.3 251 621.8 251C656.3 251 690.7 251 725.2 251C759.7 251 794.3 251 829 251C863.7 251 898.3 251 932.8 251C967.3 251 1001.7 251 1036.2 251C1070.7 251 1105.3 251 1122.7 251L1140 251L1140 219L1122.7 220.7C1105.3 222.3 1070.7 225.7 1036.2 226.2C1001.7 226.7 967.3 224.3 932.8 226C898.3 227.7 863.7 233.3 829 232.8C794.3 232.3 759.7 225.7 725.2 222.8C690.7 220 656.3 221 621.8 223.2C587.3 225.3 552.7 228.7 518.2 227.8C483.7 227 449.3 222 414.8 222.8C380.3 223.7 345.7 230.3 311 233.7C276.3 237 241.7 237 207.2 233.7C172.7 230.3 138.3 223.7 103.8 222.8C69.3 222 34.7 227 17.3 229.5L0 232Z" fill="#003b5b"></path></svg>