<svg id="visual" viewBox="0 0 900 600" width="900" height="600" xmlns="http://www.w3.org/2000/svg" xmlns:xlink="http://www.w3.org/1999/xlink" version="1.1"><rect x="0" y="0" width="900" height="600" fill="#f7f7f7"></rect><path d="M0 491L15 486.2C30 481.3 60 471.7 90 473.2C120 474.7 150 487.3 180 495.8C210 504.3 240 508.7 270 505C300 501.3 330 489.7 360 486.2C390 482.7 420 487.3 450 489.5C480 491.7 510 491.3 540 483.2C570 475 600 459 630 454.8C660 450.7 690 458.3 720 468.3C750 478.3 780 490.7 810 488C840 485.3 870 467.7 885 458.8L900 450L900 601L885 601C870 601 840 601 810 601C780 601 750 601 720 601C690 601 660 601 630 601C600 601 570 601 540 601C510 601 480 601 450 601C420 601 390 601 360 601C330 601 300 601 270 601C240 601 210 601 180 601C150 601 120 601 90 601C60 601 30 601 15 601L0 601Z" fill="#586372" stroke-linecap="round" stroke-linejoin="miter"></path></svg>