<svg id="visual" viewBox="0 0 900 600" width="900" height="600" xmlns="http://www.w3.org/2000/svg" xmlns:xlink="http://www.w3.org/1999/xlink" version="1.1"><rect x="0" y="0" width="900" height="600" fill="#f7f7f7"></rect><path d="M0 496L21.5 496.7C43 497.3 86 498.7 128.8 505.5C171.7 512.3 214.3 524.7 257.2 518C300 511.3 343 485.7 385.8 471.7C428.7 457.7 471.3 455.3 514.2 465.8C557 476.3 600 499.7 642.8 512.8C685.7 526 728.3 529 771.2 515.5C814 502 857 472 878.5 457L900 442L900 601L878.5 601C857 601 814 601 771.2 601C728.3 601 685.7 601 642.8 601C600 601 557 601 514.2 601C471.3 601 428.7 601 385.8 601C343 601 300 601 257.2 601C214.3 601 171.7 601 128.8 601C86 601 43 601 21.5 601L0 601Z" fill="#a7b7d0" stroke-linecap="round" stroke-linejoin="miter"></path></svg>