<svg id="visual" viewBox="0 0 900 600" width="900" height="600" xmlns="http://www.w3.org/2000/svg" xmlns:xlink="http://www.w3.org/1999/xlink" version="1.1"><rect x="0" y="0" width="900" height="600" fill="#f7f7f7"></rect><path d="M0 504L15 506.2C30 508.3 60 512.7 90 513.5C120 514.3 150 511.7 180 506.8C210 502 240 495 270 497.7C300 500.3 330 512.7 360 519.3C390 526 420 527 450 522.5C480 518 510 508 540 508.5C570 509 600 520 630 524.3C660 528.7 690 526.3 720 518.3C750 510.3 780 496.7 810 491.8C840 487 870 491 885 493L900 495L900 601L885 601C870 601 840 601 810 601C780 601 750 601 720 601C690 601 660 601 630 601C600 601 570 601 540 601C510 601 480 601 450 601C420 601 390 601 360 601C330 601 300 601 270 601C240 601 210 601 180 601C150 601 120 601 90 601C60 601 30 601 15 601L0 601Z" fill="#586372" stroke-linecap="round" stroke-linejoin="miter"></path></svg>