<svg id="visual" viewBox="0 0 900 600" width="900" height="600" xmlns="http://www.w3.org/2000/svg" xmlns:xlink="http://www.w3.org/1999/xlink" version="1.1"><rect x="0" y="0" width="900" height="600" fill="#f7f7f7"></rect><path d="M0 526L15 525.7C30 525.3 60 524.7 90 518.2C120 511.7 150 499.3 180 500C210 500.7 240 514.3 270 517C300 519.7 330 511.3 360 511.5C390 511.7 420 520.3 450 524.8C480 529.3 510 529.7 540 522C570 514.3 600 498.7 630 497.7C660 496.7 690 510.3 720 510.5C750 510.7 780 497.3 810 491.2C840 485 870 486 885 486.5L900 487L900 601L885 601C870 601 840 601 810 601C780 601 750 601 720 601C690 601 660 601 630 601C600 601 570 601 540 601C510 601 480 601 450 601C420 601 390 601 360 601C330 601 300 601 270 601C240 601 210 601 180 601C150 601 120 601 90 601C60 601 30 601 15 601L0 601Z" fill="#004f7c" stroke-linecap="round" stroke-linejoin="miter"></path></svg>